<?xml version="1.0" standalone="no"?>
<!DOCTYPE svg PUBLIC "-//W3C//DTD SVG 20010904//EN"
 "http://www.w3.org/TR/2001/REC-SVG-20010904/DTD/svg10.dtd">
<svg version="1.0" xmlns="http://www.w3.org/2000/svg"
 width="2000.000000pt" height="1333.000000pt" viewBox="0 0 2000.000000 1333.000000"
 preserveAspectRatio="xMidYMid meet">

<g transform="translate(0.000000,1333.000000) scale(0.100000,-0.100000)"
fill="#000000" stroke="none">
<path d="M9780 12423 c-852 -42 -1622 -240 -2354 -604 -664 -331 -1250 -783
-1748 -1347 -171 -194 -368 -452 -483 -632 -27 -41 -67 -104 -90 -140 -77
-120 -166 -283 -275 -505 -294 -599 -480 -1239 -545 -1875 -8 -85 -20 -193
-26 -240 -15 -120 -11 -672 6 -860 42 -451 106 -793 216 -1165 188 -634 446
-1164 840 -1725 157 -223 371 -473 609 -710 257 -258 523 -483 760 -645 47
-32 105 -73 130 -90 174 -125 611 -363 865 -472 363 -157 657 -253 1065 -347
178 -42 503 -90 792 -118 223 -22 752 -16 998 10 1003 108 1847 413 2670 965
641 430 1292 1112 1670 1752 29 50 59 97 66 105 21 26 190 352 244 470 175
385 287 708 378 1090 65 272 101 484 127 750 9 91 20 194 26 230 18 116 7 676
-19 900 -60 525 -135 874 -279 1300 -180 534 -451 1060 -782 1520 -353 491
-871 1005 -1331 1322 -36 24 -96 66 -135 93 -147 103 -439 271 -650 375 -610
300 -1198 473 -1882 555 -307 36 -618 50 -863 38z m-4 -1197 c36 -30 39 -86 6
-119 -19 -19 -32 -22 -87 -20 -52 2 -65 0 -65 -12 0 -8 4 -15 8 -15 5 0 28
-17 52 -37 164 -141 63 -368 -188 -422 -29 -6 -72 -11 -95 -11 -46 0 -67 -13
-67 -42 0 -33 43 -39 224 -32 160 6 177 5 244 -15 67 -21 74 -22 97 -7 13 9
29 24 34 35 12 22 31 241 31 361 0 92 -8 108 -67 139 -24 12 -30 35 -13 46 19
12 284 65 298 60 11 -4 13 -17 9 -50 -2 -25 0 -48 5 -51 5 -3 42 11 83 31 122
62 208 60 280 -6 72 -67 81 -103 67 -283 -7 -83 -12 -186 -12 -228 0 -82 0
-83 60 -128 48 -36 18 -41 -166 -29 -93 7 -179 16 -191 20 -30 11 -20 35 17
43 16 3 36 16 45 29 20 30 36 166 38 322 2 139 -8 165 -69 185 -44 15 -94 3
-138 -33 l-29 -24 -15 -197 c-7 -109 -11 -209 -8 -222 4 -14 22 -34 41 -46 33
-19 45 -41 28 -51 -5 -3 -75 1 -158 8 -94 8 -154 9 -161 4 -7 -6 -10 -25 -7
-49 12 -86 -25 -148 -121 -204 -116 -68 -420 -110 -538 -74 -52 15 -88 59 -88
106 0 30 8 43 50 82 l51 47 -40 26 c-23 15 -44 27 -48 27 -5 0 -21 -16 -37
-36 -15 -19 -42 -44 -60 -55 -38 -23 -109 -25 -150 -4 -15 8 -32 15 -37 15 -4
0 -26 -20 -49 -44 -23 -24 -69 -59 -103 -77 -56 -31 -70 -34 -144 -34 -77 0
-83 2 -114 30 -39 37 -68 99 -69 144 0 87 97 200 250 291 51 30 94 60 97 66 7
18 -37 117 -65 147 -33 34 -80 36 -117 4 -22 -19 -28 -34 -35 -98 -11 -93 -24
-124 -64 -143 -67 -31 -121 6 -121 84 0 59 34 106 115 162 54 36 171 81 243
93 63 10 126 -4 164 -38 45 -39 50 -50 123 -267 34 -102 67 -191 72 -197 27
-33 79 -5 92 48 6 28 44 72 86 102 28 19 32 15 -55 68 -81 51 -113 176 -67
264 58 113 236 200 368 180 l42 -6 37 56 c66 99 144 131 201 81z m-1806 -181
c0 -7 -9 -24 -21 -38 -47 -61 -42 -89 117 -650 l116 -409 -28 -24 c-16 -13
-38 -23 -49 -24 -12 0 -137 88 -285 200 -231 175 -290 215 -290 195 0 -2 20
-73 44 -157 96 -335 136 -479 136 -497 0 -22 -63 -66 -84 -58 -7 3 -176 134
-375 291 -199 158 -380 298 -401 312 -35 23 -46 26 -95 19 -51 -6 -55 -5 -55
14 0 14 32 41 118 98 64 42 141 95 170 116 29 21 60 36 68 33 18 -7 18 -40 -1
-56 -17 -14 -19 -43 -5 -70 15 -29 470 -390 490 -390 6 0 10 5 10 11 0 24
-121 433 -132 446 -7 8 -41 36 -77 61 -63 45 -68 47 -129 44 -55 -2 -63 0 -60
15 3 18 341 253 363 253 25 0 24 -30 -2 -60 -22 -27 -24 -34 -13 -59 12 -31
38 -53 317 -269 162 -126 203 -154 203 -137 0 2 -13 51 -29 107 -16 57 -48
171 -70 253 -53 188 -58 204 -90 238 -27 30 -29 30 -117 12 -23 -5 -33 -3 -37
8 -7 19 -5 21 146 123 90 60 125 80 135 72 6 -6 12 -16 12 -23z m3324 -108
c102 -47 162 -125 186 -240 11 -57 7 -140 -10 -166 -8 -14 -34 -8 -360 86 -30
9 -68 17 -85 17 l-30 1 -3 -69 c-3 -61 1 -77 27 -131 61 -123 173 -161 323
-107 39 13 50 14 60 4 17 -18 -15 -44 -87 -71 -146 -55 -307 -24 -420 80 -120
111 -144 256 -70 414 46 96 153 185 246 205 67 14 164 4 223 -23z m514 -227
c159 -27 162 -28 162 -46 0 -8 -11 -36 -25 -62 -30 -57 -21 -70 31 -44 64 32
152 43 206 26 25 -8 48 -56 48 -99 0 -51 -44 -95 -95 -95 -29 0 -45 9 -85 46
-47 44 -53 46 -92 41 -23 -3 -53 -14 -67 -24 -30 -21 -181 -314 -181 -351 0
-12 13 -36 29 -53 27 -28 32 -59 10 -59 -5 0 -86 38 -179 85 -135 68 -170 89
-170 105 0 18 5 20 39 14 22 -3 47 -1 59 5 24 13 191 345 199 395 3 23 -2 41
-22 70 -27 40 -27 66 0 66 9 0 69 -9 133 -20z m1446 -546 c110 -31 208 -112
263 -216 34 -65 88 -118 119 -118 6 0 17 -6 23 -14 10 -11 -1 -38 -54 -133
-80 -143 -89 -153 -111 -132 -13 14 -14 29 -5 111 17 168 -10 283 -80 342 -71
60 -151 71 -257 35 -94 -32 -176 -90 -298 -213 -107 -108 -161 -182 -197 -274
-49 -124 17 -266 141 -302 54 -15 117 14 194 89 81 80 90 107 54 161 -30 46
-33 65 -8 75 13 5 54 -31 180 -161 95 -98 162 -174 160 -183 -4 -21 -46 -26
-66 -8 -52 45 -92 28 -219 -95 -50 -48 -93 -88 -96 -88 -3 0 -24 16 -47 35
-23 20 -81 57 -129 83 -114 62 -235 180 -279 272 -85 177 -52 375 88 533 163
182 410 262 624 201z m-6974 -651 c136 -40 150 -46 150 -74 0 -27 -14 -31
-114 -34 -214 -5 -355 -109 -356 -263 0 -130 139 -287 346 -390 105 -52 163
-67 259 -67 127 1 218 54 269 157 34 67 35 162 4 266 -17 58 -19 75 -9 85 27
27 85 -92 103 -215 37 -242 -152 -484 -406 -521 -326 -47 -659 245 -659 578 0
141 48 245 153 334 62 52 90 95 90 137 0 56 5 56 170 7z m4036 -168 c333 -32
506 -90 555 -186 23 -47 25 -106 2 -131 -18 -21 -76 -24 -136 -7 -20 5 -69 37
-108 70 -39 32 -79 59 -89 59 -10 0 -46 -19 -81 -43 -35 -23 -89 -51 -119 -61
-66 -23 -131 -65 -154 -100 -21 -33 -36 -33 -36 -1 0 31 -16 32 -46 4 -34 -31
-44 -16 -44 64 0 127 -12 118 168 116 172 -1 172 -1 170 66 -2 77 -1 76 -167
74 -82 -1 -154 1 -160 5 -12 8 -15 68 -4 79 10 11 75 8 249 -8z m-393 -17 c8
-27 -9 -58 -31 -59 -9 0 -76 0 -147 1 -72 0 -139 -2 -148 -6 -14 -5 -17 -19
-17 -70 l0 -64 164 0 c94 0 167 -4 171 -10 3 -5 7 -54 8 -108 3 -123 -3 -132
-82 -132 -53 0 -60 4 -116 51 -33 28 -102 70 -153 95 -109 52 -195 131 -190
174 7 60 279 146 474 149 55 1 62 -1 67 -21z m3751 -195 c58 -53 106 -102 106
-110 0 -7 -20 -26 -45 -41 -25 -15 -45 -32 -45 -39 0 -13 11 -16 85 -28 53 -9
108 -38 135 -72 47 -60 -6 -163 -84 -163 -50 0 -82 31 -96 92 -7 29 -17 61
-21 70 -10 18 -67 38 -109 38 -31 0 -316 -175 -337 -207 -12 -18 -13 -29 -3
-57 12 -37 7 -56 -14 -56 -13 0 -216 317 -216 337 0 22 29 21 55 -3 14 -13 35
-24 46 -24 26 0 89 34 239 128 140 88 174 125 164 178 -7 36 0 54 21 54 7 0
61 -43 119 -97z m-4369 42 c29 -28 32 -62 8 -103 -9 -16 -14 -36 -10 -45 3 -9
37 -30 74 -47 141 -64 137 -86 -24 -129 -28 -8 -43 -17 -43 -28 0 -14 15 -15
140 -9 139 7 140 7 140 -14 0 -48 17 -61 77 -58 53 3 57 1 82 -31 59 -78 134
-149 191 -182 116 -65 150 -91 187 -142 20 -29 67 -83 104 -122 68 -72 111
-133 121 -173 16 -62 -70 -91 -287 -99 -82 -3 -156 -10 -162 -15 -9 -7 -13
-41 -13 -102 0 -54 -7 -117 -16 -151 -22 -80 -22 -99 -2 -103 19 -4 39 30 88
155 18 45 45 96 60 114 26 32 28 33 67 21 39 -12 60 -10 203 17 109 21 140 33
145 55 28 133 28 130 -4 205 -16 39 -69 135 -117 213 -48 79 -102 169 -121
200 -20 32 -33 64 -30 71 2 7 23 26 46 41 36 25 49 29 110 27 78 -2 87 5 88
63 1 21 5 42 10 46 12 13 256 70 297 70 20 0 84 -16 143 -34 131 -43 143 -40
143 39 0 50 2 55 26 61 47 12 136 -4 198 -35 116 -58 255 -198 324 -326 23
-44 26 -61 27 -150 0 -86 -4 -111 -28 -175 -54 -143 -109 -240 -136 -240 -4 0
-13 12 -20 26 -34 75 -79 -41 -88 -226 -9 -176 29 -261 198 -445 126 -137 128
-143 104 -312 -14 -102 -15 -137 -6 -170 14 -49 69 -126 95 -131 16 -3 18 3
15 54 -5 72 9 79 56 28 48 -52 68 -99 73 -171 7 -95 -17 -154 -83 -204 -29
-22 -65 -58 -81 -80 -35 -51 -91 -100 -106 -93 -7 2 -24 29 -37 60 -30 70 -91
124 -209 188 -104 56 -162 100 -162 124 0 18 116 170 178 235 49 51 76 47 80
-11 2 -33 -5 -58 -32 -111 -19 -38 -32 -72 -29 -75 13 -12 30 -5 65 27 55 49
105 130 129 210 20 64 21 79 10 140 -14 86 -52 156 -123 229 -94 97 -154 111
-221 49 -73 -67 -152 -101 -337 -146 -110 -26 -166 -54 -256 -128 -74 -61
-114 -81 -114 -59 0 5 9 35 20 67 47 136 10 126 -91 -25 -92 -136 -156 -200
-203 -200 -92 0 -124 118 -61 226 30 51 104 108 232 177 94 51 160 79 376 162
89 33 120 55 104 72 -3 3 -88 -20 -189 -50 -234 -72 -316 -93 -324 -84 -21 20
132 179 208 216 51 24 72 25 167 9 76 -13 92 -8 73 22 -24 38 -14 56 58 104
65 43 89 76 56 76 -7 0 -46 -15 -87 -34 -42 -19 -100 -37 -134 -41 -160 -19
-317 -156 -530 -464 -79 -114 -156 -201 -180 -201 -21 0 -96 91 -195 235 -63
93 -122 163 -205 245 -150 150 -202 185 -297 200 -65 10 -225 59 -271 82 -9 5
-24 5 -32 0 -13 -7 -12 -11 7 -29 36 -32 277 -167 383 -213 52 -23 112 -55
133 -70 62 -45 134 -140 105 -140 -3 0 -68 24 -142 54 -75 30 -153 58 -174 61
-34 7 -39 5 -35 -10 2 -12 42 -36 118 -71 154 -71 257 -141 361 -244 122 -120
144 -188 86 -256 -48 -55 -115 -18 -187 103 -87 146 -151 233 -171 233 -17 0
-20 -5 -16 -22 25 -110 29 -137 23 -161 -3 -15 -13 -27 -20 -27 -8 0 -56 36
-106 80 -96 83 -100 85 -295 145 -71 22 -171 64 -245 102 l-125 65 -40 -20
c-69 -34 -161 -126 -195 -196 -27 -54 -31 -75 -32 -141 0 -71 4 -85 40 -159
45 -90 134 -188 153 -169 7 7 3 25 -16 61 -32 61 -41 112 -25 141 18 36 49 22
108 -49 128 -154 172 -187 287 -219 36 -10 90 -35 119 -55 28 -19 69 -39 91
-44 67 -13 52 -36 -30 -45 -157 -17 -155 -17 -155 -37 0 -27 36 -35 160 -34
82 1 119 6 170 24 92 32 221 98 399 203 145 86 154 90 167 72 8 -10 14 -31 14
-46 0 -37 23 -43 51 -13 27 29 45 31 58 5 20 -36 40 -33 61 9 11 22 24 40 29
40 4 0 75 -39 157 -86 277 -161 341 -191 467 -224 49 -13 242 -9 280 5 17 7
25 35 10 35 -44 1 -225 31 -246 41 -48 22 -31 35 76 57 128 27 144 27 243 2
152 -39 288 -129 328 -219 37 -80 4 -88 -197 -45 -219 45 -331 65 -392 67 -55
2 -65 -1 -113 -35 -29 -20 -77 -46 -107 -57 -30 -11 -64 -26 -75 -33 -33 -21
-50 -1 -120 138 -41 82 -71 130 -82 132 -27 5 -23 -25 17 -130 19 -51 41 -127
50 -168 35 -166 47 -181 96 -120 41 50 93 84 159 104 49 15 170 22 170 11 0
-3 -15 -25 -34 -49 -19 -25 -44 -74 -56 -110 -12 -37 -27 -66 -33 -66 -7 0
-25 9 -42 20 -49 32 -62 27 -70 -29 -4 -28 -20 -70 -36 -95 -37 -59 -61 -60
-109 -4 -45 51 -61 45 -54 -20 5 -39 2 -53 -18 -80 -12 -18 -36 -51 -53 -75
-16 -23 -44 -61 -61 -85 l-32 -43 51 -110 c66 -142 80 -143 82 -4 2 112 16
159 60 193 39 31 51 28 82 -20 78 -124 114 -287 79 -356 -9 -18 -32 -40 -51
-49 -34 -16 -36 -16 -100 17 -40 20 -69 30 -75 24 -5 -5 -17 -33 -27 -63 -11
-33 -28 -62 -45 -74 -25 -19 -28 -19 -52 -3 -60 39 -85 128 -86 307 0 108 2
119 25 153 30 45 30 47 4 80 -31 40 -64 35 -85 -14 -22 -49 -39 -56 -60 -25
-21 33 -50 32 -66 -2 -22 -47 -40 -34 -66 47 -12 41 -28 78 -35 82 -15 9 -44
-18 -67 -63 -40 -78 -69 -74 -171 21 -50 47 -61 62 -56 81 19 82 19 89 1 96
-13 5 -27 -5 -54 -35 -19 -23 -38 -42 -42 -42 -3 0 -20 44 -38 98 -31 96 -53
142 -68 142 -4 0 -25 -16 -47 -35 -22 -19 -44 -33 -49 -32 -6 2 -19 33 -31 69
-12 36 -36 88 -53 115 -18 27 -32 55 -32 60 0 28 51 25 160 -10 53 -17 75 -31
123 -79 66 -67 81 -67 92 5 3 23 20 84 37 135 17 50 28 95 25 98 -13 13 -35
-6 -71 -61 -21 -31 -45 -59 -53 -62 -30 -12 -189 85 -203 123 -8 21 -16 24
-59 24 -65 0 -178 -16 -326 -45 -245 -49 -436 -61 -493 -31 -33 17 -73 59 -98
104 -10 18 -45 53 -77 77 -32 25 -62 58 -68 73 -34 85 52 309 114 300 18 -2
23 -11 27 -48 7 -66 28 -63 85 12 53 70 53 73 16 208 -41 148 -28 184 123 352
119 134 143 169 162 241 30 111 9 374 -32 408 -16 13 -44 -4 -44 -26 0 -7 -6
-18 -14 -24 -15 -12 -21 -1 -117 212 -67 146 -76 185 -61 244 19 70 74 153
165 250 120 126 250 221 474 347 164 92 208 102 248 61z m4634 -661 c113 -51
194 -148 226 -269 22 -85 19 -135 -12 -211 -35 -86 -94 -146 -181 -187 -61
-29 -76 -32 -167 -32 -90 0 -106 3 -158 29 -75 37 -132 95 -170 176 -40 83
-50 213 -22 288 72 194 299 290 484 206z m-8371 -25 c4 -77 10 -88 55 -109 23
-11 161 -52 307 -90 146 -39 311 -82 367 -97 99 -27 103 -27 138 -10 23 11 41
29 50 51 18 42 31 52 50 36 11 -9 11 -22 -5 -78 -10 -37 -35 -130 -55 -207
-51 -199 -54 -205 -76 -205 -16 0 -19 7 -19 54 0 90 -11 97 -295 171 -77 20
-203 54 -280 75 -77 20 -156 41 -175 45 -66 14 -59 9 395 -300 66 -45 168
-115 228 -154 84 -57 107 -78 107 -96 0 -12 -6 -27 -12 -32 -7 -6 -62 -13
-123 -17 -60 -4 -236 -18 -390 -31 -154 -14 -301 -26 -328 -28 -47 -4 -66 -12
-55 -22 5 -5 256 -74 533 -146 114 -30 183 -36 215 -19 10 5 28 26 40 45 23
37 60 48 60 18 0 -30 -78 -315 -89 -326 -20 -20 -38 1 -44 53 -12 100 -27 108
-432 216 -93 25 -210 56 -260 69 -144 39 -188 31 -215 -41 -11 -29 -39 -42
-50 -24 -4 7 5 62 22 124 16 61 38 145 48 186 11 41 24 78 29 83 9 9 103 19
431 43 124 9 229 20 234 24 9 9 -21 31 -329 244 -118 81 -215 153 -215 160 0
6 11 52 25 101 14 50 35 128 46 175 12 47 26 91 32 98 18 22 32 7 35 -39z
m2782 -266 c89 -102 180 -343 180 -479 0 -62 -5 -81 -32 -135 -34 -64 -129
-156 -149 -143 -15 9 -27 47 -39 119 -6 35 -26 119 -46 187 -34 116 -36 131
-35 258 1 136 11 190 39 223 23 26 37 21 82 -30z m3417 -52 c24 -83 13 -261
-26 -411 -32 -124 -84 -277 -100 -293 -25 -25 -131 88 -156 169 -16 51 -16 61
-1 153 33 194 133 418 204 455 24 13 29 12 45 -2 9 -8 25 -41 34 -71z m2495
-388 c20 -25 118 -237 118 -256 0 -9 -10 -19 -22 -22 -23 -5 -299 -49 -411
-65 -92 -14 -122 -27 -142 -64 -15 -28 -16 -38 -5 -72 15 -47 63 -111 90 -119
21 -7 264 29 315 46 37 12 75 47 75 69 0 9 6 25 14 36 14 18 16 18 32 2 23
-23 132 -259 127 -274 -2 -7 -25 -15 -51 -18 -26 -4 -119 -18 -207 -32 -339
-54 -359 -60 -380 -120 -26 -76 -48 -66 -64 29 -6 40 -17 100 -22 134 -14 76
-10 88 30 96 17 4 31 12 31 18 0 7 -18 32 -41 56 -44 48 -84 125 -94 184 -15
81 39 174 118 203 41 15 270 56 315 56 49 0 121 54 122 91 0 15 19 39 30 39 4
0 13 -8 22 -17z m-8700 -823 c21 -6 56 -25 79 -43 81 -62 113 -154 131 -372
l12 -148 173 6 c203 7 226 14 244 80 6 23 13 48 15 55 2 8 12 12 21 10 16 -3
19 -28 31 -248 7 -151 8 -248 3 -253 -17 -17 -37 0 -49 41 -7 23 -25 51 -40
63 -30 24 -54 24 -607 -2 -263 -12 -279 -17 -296 -84 -16 -63 -18 -67 -36 -63
-16 3 -19 29 -29 268 -12 283 -6 436 21 510 52 147 185 219 327 180z m7976
-126 c2 -12 14 -31 26 -43 22 -20 42 -24 222 -36 110 -8 268 -17 352 -21 l152
-7 45 49 c58 63 64 57 98 -106 36 -169 37 -165 -20 -161 -33 3 -35 -13 -7 -67
56 -107 39 -244 -40 -326 -132 -135 -395 -138 -540 -5 -116 106 -142 222 -77
353 19 39 29 72 24 77 -5 5 -55 10 -112 11 -111 3 -116 1 -157 -68 -9 -15 -15
-16 -24 -7 -10 9 -10 46 -1 175 6 90 11 174 11 186 0 19 5 23 23 20 13 -2 23
-11 25 -24z m-4607 -626 c6 -11 15 -50 19 -85 6 -46 15 -72 31 -89 18 -19 21
-30 15 -66 -3 -24 -10 -74 -16 -113 -14 -98 -19 -115 -33 -114 -18 0 -161 202
-202 284 -44 88 -53 136 -31 169 21 33 44 24 52 -22 7 -38 20 -62 35 -62 4 0
27 27 49 60 43 64 62 73 81 38z m2169 -53 c12 -19 29 -35 38 -35 9 0 33 17 54
37 52 51 61 39 56 -79 l-3 -95 -49 -59 c-27 -32 -69 -85 -94 -116 -25 -32 -51
-58 -58 -58 -9 0 -14 20 -16 68 -2 51 -6 67 -18 67 -10 0 -18 -19 -25 -66 -16
-93 -35 -119 -86 -119 -39 0 -41 1 -67 58 -26 56 -27 61 -24 217 2 89 8 164
13 170 15 14 47 -27 103 -129 35 -63 52 -86 67 -86 19 0 19 5 13 89 -13 178
31 241 96 136z m-1904 -32 c30 -104 -1 -336 -51 -383 -41 -39 -65 -24 -94 57
l-25 71 18 59 c19 62 77 193 102 231 22 34 32 27 50 -35z m186 -184 c34 -45
44 -152 24 -259 -20 -107 -51 -187 -75 -193 -26 -7 -105 -3 -118 6 -27 17 -6
169 47 340 41 133 78 165 122 106z m1326 -36 c46 -109 101 -357 89 -405 -5
-19 -17 -28 -51 -38 -24 -7 -49 -9 -55 -5 -64 39 -107 394 -57 468 28 41 50
35 74 -20z m-1124 -173 c50 -45 70 -112 63 -214 -9 -128 -41 -196 -104 -222
-40 -17 -49 -13 -104 49 l-42 48 13 57 c24 112 79 260 108 295 20 23 26 22 66
-13z m273 -220 c-5 -146 -28 -253 -61 -295 -21 -27 -25 -28 -41 -15 -88 73
-55 356 51 439 22 17 30 19 42 9 12 -10 14 -35 9 -138z m-739 43 c27 -127 33
-172 30 -218 -2 -27 -7 -49 -13 -49 -27 5 -79 253 -62 297 13 33 35 18 45 -30z
m941 -48 c14 -54 14 -167 1 -260 -17 -113 -57 -135 -104 -56 -38 66 -31 297
11 344 23 25 55 37 69 26 7 -5 17 -29 23 -54z m-1034 -78 c13 -63 29 -125 35
-137 21 -38 260 -333 298 -368 30 -26 42 -31 68 -26 32 6 41 -2 137 -119 21
-26 42 -47 48 -47 5 0 24 20 41 45 18 25 35 45 39 45 4 0 30 -32 59 -70 28
-39 57 -74 65 -77 26 -10 59 5 112 52 28 25 55 45 60 45 5 0 19 -17 30 -38 61
-108 125 -113 228 -19 28 26 54 47 58 47 4 0 16 -13 25 -30 9 -16 25 -30 35
-30 24 0 67 46 113 122 31 50 40 59 58 53 62 -19 66 -18 106 23 21 23 58 76
82 119 29 52 60 90 94 118 70 56 101 98 119 164 52 187 73 236 91 218 16 -15
42 -277 32 -315 -19 -74 -236 -258 -543 -462 -77 -51 -149 -101 -161 -111 -19
-18 -42 -19 -391 -19 -329 0 -372 -2 -377 -16 -10 -27 -7 -99 6 -112 8 -8 58
-12 158 -12 100 0 150 -4 158 -12 7 -7 12 -29 12 -50 0 -31 -8 -47 -37 -79
-37 -39 -41 -40 -116 -46 l-78 -6 -44 47 c-48 52 -158 264 -194 376 -12 36
-29 74 -39 85 -9 12 -121 105 -248 207 -160 129 -235 196 -244 218 -24 57 12
288 53 338 18 22 27 -1 52 -121z m-3040 5 c16 -53 45 -144 65 -202 l35 -105
218 -3 c164 -2 217 -5 217 -15 -1 -6 -75 -65 -166 -130 -91 -66 -168 -125
-170 -132 -3 -8 24 -103 60 -212 35 -109 62 -201 58 -205 -4 -4 -84 49 -179
117 -94 69 -176 125 -182 125 -10 0 -164 -109 -294 -208 -66 -50 -86 -47 -63
10 25 60 116 347 116 365 0 12 -62 62 -168 139 -92 66 -167 124 -167 130 0 5
88 10 211 12 153 2 215 6 222 15 5 6 35 93 66 192 31 99 58 186 61 193 12 33
32 4 60 -86z m8080 86 c2 -7 31 -100 65 -205 l62 -193 219 0 c126 0 219 -4
219 -9 0 -10 -46 -45 -228 -176 -78 -56 -112 -86 -112 -100 0 -11 27 -101 60
-200 57 -173 68 -215 53 -215 -3 0 -47 31 -97 69 -163 123 -246 181 -257 181
-11 0 -316 -217 -325 -231 -8 -14 -47 -11 -42 4 43 114 129 391 125 400 -3 7
-79 67 -170 132 -92 66 -166 126 -167 133 0 9 48 12 210 12 206 0 210 0 224
23 8 12 37 94 66 182 28 88 55 170 60 183 10 24 28 29 35 10z m-3165 -42 c0
-43 -29 -166 -47 -199 l-18 -32 -3 31 c-3 32 19 150 37 197 13 34 31 35 31 3z
m-1562 -214 l43 -37 18 -120 c10 -66 17 -123 14 -127 -28 -50 -136 119 -149
234 -11 98 5 109 74 50z m1382 -26 c0 -57 -41 -185 -80 -253 -29 -50 -51 -65
-65 -44 -9 15 13 135 35 194 22 55 84 147 100 147 6 0 10 -20 10 -44z m-1128
-101 c78 -113 92 -265 23 -265 -27 0 -52 31 -88 110 -36 81 -39 93 -24 131 8
19 17 42 20 52 10 28 38 17 69 -28z m888 16 c29 -56 -7 -212 -66 -279 -27 -31
-35 -35 -51 -26 -15 10 -18 24 -17 90 0 91 13 136 55 193 32 45 62 53 79 22z
m-591 -76 c71 -81 64 -223 -14 -308 -31 -33 -39 -34 -70 -3 -34 34 -49 97 -50
206 l0 95 32 3 c20 2 37 11 43 23 15 26 23 24 59 -16z m298 -1 c51 -20 58 -39
48 -121 -11 -86 -42 -176 -71 -208 l-27 -29 -28 32 c-62 69 -77 230 -29 310
23 37 44 40 107 16z m307 -496 c-79 -134 -166 -255 -194 -272 -16 -9 -51 -19
-78 -23 -47 -5 -161 12 -163 25 -4 54 0 145 7 152 5 5 81 11 169 12 l160 3 3
62 c3 56 6 65 32 83 16 11 44 27 62 34 48 21 48 1 2 -76z m-3266 -221 c73 -87
132 -163 132 -171 0 -17 -110 -105 -124 -100 -7 3 -48 49 -91 104 -44 55 -86
100 -93 100 -7 0 -57 -37 -110 -83 -53 -46 -189 -159 -302 -252 -172 -141
-319 -263 -403 -333 -16 -14 -22 -10 -67 39 -27 30 -50 59 -50 65 0 9 256 226
613 519 34 28 122 101 197 163 74 61 142 111 151 110 9 -2 75 -74 147 -161z
m6094 -161 c41 -21 506 -402 538 -441 10 -12 6 -22 -18 -52 -16 -21 -39 -46
-50 -56 -19 -18 -22 -18 -44 -3 -34 24 -41 20 -34 -22 17 -111 -80 -204 -194
-186 -50 8 -118 52 -186 120 -65 63 -94 119 -94 179 0 54 16 89 75 166 24 30
40 60 37 66 -4 6 -27 27 -52 47 -68 54 -128 47 -150 -18 -8 -25 -8 -41 -1 -55
20 -36 11 -65 -33 -115 l-43 -50 -26 26 c-74 74 -98 194 -56 283 26 55 97 120
147 134 53 15 129 5 184 -23z m-6203 -270 c42 -43 44 -46 28 -64 -24 -27 -21
-32 18 -32 51 0 95 -21 132 -63 58 -66 52 -138 -19 -228 -22 -29 -124 -137
-225 -240 -229 -233 -265 -254 -358 -209 -55 27 -87 72 -93 132 -3 30 -9 48
-17 48 -8 0 -73 -63 -146 -140 -73 -77 -140 -140 -149 -140 -9 0 -38 22 -65
50 l-48 49 68 73 c38 40 233 243 434 450 287 298 368 375 380 368 9 -5 36 -29
60 -54z m5786 -134 c44 -31 342 -353 410 -444 53 -70 63 -118 39 -177 -24 -61
-82 -101 -146 -101 -33 0 -48 -4 -48 -13 0 -13 222 -265 247 -280 25 -15 13
-44 -37 -91 -27 -25 -53 -46 -58 -46 -5 0 -38 33 -73 72 -35 40 -111 125 -169
188 -116 129 -284 315 -469 520 -66 74 -121 142 -120 150 0 8 22 35 50 59 47
41 50 42 73 28 28 -19 36 -13 36 25 0 87 110 169 195 146 17 -4 48 -21 70 -36z
m-5418 -203 c58 -46 63 -60 34 -116 -11 -21 -39 -78 -62 -128 -150 -322 -135
-285 -116 -285 6 0 94 77 195 170 100 94 189 170 196 170 13 0 105 -65 118
-84 6 -9 -75 -90 -175 -174 -24 -20 -133 -116 -242 -212 -378 -333 -410 -360
-459 -385 -67 -34 -126 -33 -191 3 -27 15 -51 35 -53 44 -4 19 74 128 92 128
6 0 20 -7 30 -15 11 -8 31 -15 45 -15 32 0 148 86 178 132 12 18 88 200 168
403 81 204 151 378 156 388 14 25 26 22 86 -24z m4951 -175 c29 -14 68 -44 87
-67 43 -50 165 -232 165 -247 0 -5 -54 -46 -119 -89 -66 -44 -123 -85 -126
-91 -9 -14 60 -116 92 -137 27 -18 60 -12 92 18 20 18 22 28 16 65 -6 43 -6
43 49 83 30 23 61 41 69 41 27 0 52 -79 52 -161 0 -70 -3 -81 -30 -120 -49
-70 -104 -102 -179 -107 -80 -5 -122 9 -178 57 -49 44 -287 393 -312 459 -76
201 130 392 322 296z m-4312 -243 c84 -45 158 -88 165 -97 14 -17 14 -17 -64
-159 -89 -164 -182 -334 -260 -477 -44 -82 -85 -148 -90 -148 -21 0 -127 64
-127 77 0 7 17 44 37 81 156 283 300 558 297 566 -6 14 -99 66 -118 66 -15 0
-32 -24 -83 -120 -17 -30 -62 -113 -101 -185 -38 -71 -93 -173 -121 -225 -55
-106 -67 -113 -128 -82 -80 41 -80 43 -10 172 35 63 128 234 207 380 79 146
148 268 154 272 6 4 29 -3 51 -16 22 -13 108 -60 191 -105z m3928 -173 c57
-117 142 -291 190 -386 47 -95 86 -181 86 -191 0 -17 -95 -71 -126 -71 -10 0
-42 56 -91 156 -42 86 -83 158 -91 161 -18 7 -121 -42 -128 -61 -3 -7 29 -84
70 -170 42 -86 76 -161 76 -166 0 -7 -121 -70 -135 -70 -3 0 -71 134 -151 298
-224 457 -234 478 -234 495 0 21 120 79 136 66 6 -5 42 -74 80 -154 38 -80 74
-147 81 -149 19 -8 133 52 133 69 0 8 -31 78 -70 155 -38 77 -70 146 -70 155
0 14 102 74 128 75 8 0 58 -93 116 -212z m-1710 44 c96 -52 135 -132 143 -299
7 -121 4 -135 -42 -203 l-36 -53 31 -29 c49 -44 71 -107 81 -227 10 -125 -1
-212 -36 -281 -47 -92 -121 -125 -312 -138 -73 -5 -133 -5 -140 0 -13 10 -20
74 -33 328 -6 102 -17 293 -25 425 -29 460 -29 481 -14 491 16 10 234 21 294
15 22 -2 62 -15 89 -29z m-1729 -91 c123 -46 211 -84 213 -93 1 -7 -31 -104
-72 -213 -174 -469 -216 -584 -216 -593 0 -21 -32 -20 -94 5 -36 14 -66 28
-66 32 0 7 113 317 204 559 25 68 44 127 41 132 -6 10 -109 50 -129 50 -16 0
-30 -35 -258 -652 -5 -14 -15 -28 -21 -31 -20 -7 -137 44 -137 59 0 15 200
562 295 807 4 9 12 17 19 17 6 0 106 -35 221 -79z m2891 -31 c16 -45 18 -64
10 -75 -6 -8 -48 -26 -94 -40 -46 -15 -85 -32 -88 -40 -5 -13 20 -93 156 -488
34 -98 60 -185 58 -194 -4 -18 -129 -66 -141 -54 -4 4 -55 147 -113 317 -58
170 -121 354 -140 409 -27 79 -32 102 -22 112 16 15 329 122 343 117 6 -3 20
-31 31 -64z m-2333 -120 c29 -11 67 -35 84 -52 75 -79 86 -153 49 -320 -30
-137 -67 -304 -95 -437 -11 -51 -24 -98 -30 -104 -8 -8 -29 -7 -73 2 -79 16
-81 18 -74 52 4 24 2 29 -13 29 -10 0 -24 -7 -31 -14 -22 -28 -78 -39 -124
-26 -112 31 -152 142 -110 304 29 112 68 172 131 205 29 15 141 14 198 -1 55
-15 61 -9 71 69 9 71 0 100 -37 118 -37 20 -64 13 -106 -27 l-32 -31 -61 14
c-34 7 -66 19 -71 25 -22 27 62 148 126 181 71 38 123 41 198 13z m1758 -1
c53 -18 97 -56 129 -111 30 -53 41 -93 85 -308 14 -69 40 -187 56 -264 19 -87
27 -142 21 -148 -11 -11 -124 -36 -141 -30 -6 2 -11 12 -11 22 0 37 -22 32
-63 -15 -49 -54 -98 -71 -162 -54 -85 22 -134 104 -156 256 -14 100 -6 151 32
205 25 34 109 76 171 84 64 9 71 19 57 83 -13 60 -51 111 -84 111 -31 0 -72
-35 -93 -78 -16 -34 -23 -38 -81 -51 -79 -17 -84 -11 -76 79 8 79 42 142 101
183 63 44 148 58 215 36z"/>
<path d="M9394 11031 c-32 -14 -73 -68 -80 -107 -17 -93 20 -211 80 -252 85
-58 186 17 186 139 0 143 -97 258 -186 220z"/>
<path d="M8704 10570 c-54 -41 -94 -106 -94 -152 0 -66 42 -132 91 -143 58
-13 149 65 149 127 0 24 -47 171 -63 196 -13 19 -29 14 -83 -28z"/>
<path d="M9341 10299 c-27 -44 -26 -82 2 -114 29 -34 80 -45 170 -35 92 11
123 18 169 42 69 34 85 92 35 120 -14 8 -85 14 -189 16 l-167 4 -20 -33z"/>
<path d="M11162 10892 c-39 -12 -86 -57 -116 -111 -24 -45 -26 -55 -15 -66 8
-7 70 -30 138 -50 107 -31 126 -34 138 -22 20 20 28 155 11 186 -27 50 -101
79 -156 63z"/>
<path d="M9952 6603 c-19 -9 -55 -43 -81 -75 -51 -63 -215 -347 -226 -391 -17
-67 26 -111 51 -52 8 19 18 35 23 35 5 0 27 -24 50 -54 22 -30 50 -57 61 -61
24 -8 92 29 129 69 14 14 31 26 39 26 9 0 45 -29 81 -63 84 -81 103 -92 124
-69 8 9 22 42 31 73 16 58 37 86 56 74 5 -3 10 -15 10 -26 0 -27 27 -89 38
-89 15 0 35 58 34 96 -2 49 -163 346 -239 442 -35 43 -97 82 -130 82 -10 0
-33 -8 -51 -17z"/>
<path d="M13820 8352 c-131 -37 -250 -109 -291 -175 -56 -93 14 -197 133 -197
109 0 321 85 391 158 64 66 61 156 -5 204 -42 29 -143 34 -228 10z"/>
<path d="M5391 6707 c-100 -32 -158 -166 -120 -275 17 -50 43 -54 255 -45
l189 8 0 80 c-1 134 -44 210 -133 235 -47 13 -147 11 -191 -3z"/>
<path d="M13844 6503 c-104 -114 -39 -227 154 -269 81 -17 167 -18 230 -3 131
32 170 146 85 248 l-28 33 -185 14 c-102 7 -193 13 -204 14 -10 0 -33 -17 -52
-37z"/>
<path d="M13435 3823 c-46 -69 -24 -143 55 -183 50 -25 71 -25 104 1 19 15 26
29 26 57 0 31 -9 44 -64 99 -36 35 -72 63 -80 63 -8 0 -27 -17 -41 -37z"/>
<path d="M6863 3567 c-92 -92 -154 -163 -158 -180 -16 -62 27 -116 82 -103 32
8 303 278 329 328 29 56 -2 108 -64 108 -34 0 -48 -11 -189 -153z"/>
<path d="M12760 3600 c-28 -28 -25 -70 9 -117 48 -67 262 -294 288 -306 33
-15 90 13 99 49 10 40 -15 81 -118 196 -159 177 -183 198 -223 198 -22 0 -43
-8 -55 -20z"/>
<path d="M12295 3235 c-14 -13 -25 -35 -25 -47 0 -32 68 -138 87 -138 21 0
110 57 116 74 6 14 -52 102 -80 124 -27 20 -72 14 -98 -13z"/>
<path d="M10124 2885 c-11 -28 13 -306 27 -320 19 -19 116 0 147 28 30 28 45
90 38 160 -7 65 -26 109 -58 131 -30 22 -146 22 -154 1z"/>
<path d="M10161 2391 c-11 -7 -12 -37 -1 -192 6 -101 16 -189 21 -195 12 -14
94 -6 131 13 49 24 61 63 56 182 -7 158 -36 201 -138 201 -30 0 -61 -4 -69 -9z"/>
<path d="M8970 2287 c-58 -29 -80 -148 -35 -192 50 -51 121 -20 144 61 21 74
25 125 10 135 -21 13 -90 11 -119 -4z"/>
<path d="M10920 2294 c-51 -22 -70 -51 -70 -109 0 -102 76 -157 144 -104 21
17 26 29 26 65 0 50 -18 132 -33 152 -12 15 -24 15 -67 -4z"/>
</g>
</svg>
